# xmcd
#
# Track frame offsets:
#	150
#	21469
#	41408
#	63379
#	82302
#	101136
#	115924
#	137302
#	157265
#	179139
#	197823
#	216677
#
# Disc length: 3085 seconds
#
# Revision: 1
# Processed by: cddbd v1.5.2PL0 Copyright (c) Steve Scherf et al.
# Submitted via: audiograbber 1.83.01
#
DISCID=be0c0b0c
DTITLE=Shania Twain - Chartbuster 20433
DYEAR=1900
DGENRE=Karaoke
TTITLE0=Shania Twain (Vocal) - If You're Not In It For Love (I'm Outta Here)
TTITLE1=Shania Twain (Vocal) - Whose Bed Have Your Boots Been Under
TTITLE2=Shania Twain (Vocal) - The Woman In Me
TTITLE3=Shania Twain (Vocal) - You Win My Love
TTITLE4=Shania Twain (Vocal) - Any Man Of Mine
TTITLE5=Shania Twain (Vocal) - No One Needs To Know
TTITLE6=Shania Twain - If You're Not In It For Love (I'm Outta Here)
TTITLE7=Shania Twain - Whose Bed Have Your Boots Been Under
TTITLE8=Shania Twain - The Woman In Me
TTITLE9=Shania Twain - You Win My Love
TTITLE10=Shania Twain - Any Man Of Mine
TTITLE11=Shania Twain - No One Needs To Know
EXTD=
EXTT0=
EXTT1=
EXTT2=
EXTT3=
EXTT4=
EXTT5=
EXTT6=
EXTT7=
EXTT8=
EXTT9=
EXTT10=
EXTT11=
PLAYORDER=
